<svg viewBox="0 0 1200 50" xmlns="http://www.w3.org/2000/svg">
  <defs>
    <linearGradient id="fade" x1="0" y1="0" x2="1" y2="0">
      <stop offset="0%" stop-color="#5FA96C" stop-opacity="0"/>
      <stop offset="12%" stop-color="#5FA96C" stop-opacity="0.7"/>
      <stop offset="88%" stop-color="#5FA96C" stop-opacity="0.7"/>
      <stop offset="100%" stop-color="#5FA96C" stop-opacity="0"/>
    </linearGradient>
  </defs>
  <line x1="0" y1="25" x2="1200" y2="25" stroke="url(#fade)" stroke-width="1.5"/>
  <g transform="translate(600,25)">
    <circle r="5" fill="#E8B94A"/>
    <path d="M0,-3 C9,-10 9,-20 0,-26 C-9,-20 -9,-10 0,-3 Z" fill="#5FA96C" opacity="0.85"/>
    <path d="M0,3 C9,10 9,20 0,26 C-9,20 -9,10 0,3 Z" fill="#5FA96C" opacity="0.85"/>
    <path d="M-3,0 C-10,9 -20,9 -26,0 C-20,-9 -10,-9 -3,0 Z" fill="#5FA96C" opacity="0.7"/>
    <path d="M3,0 C10,9 20,9 26,0 C20,-9 10,-9 3,0 Z" fill="#5FA96C" opacity="0.7"/>
  </g>
</svg>
